<svg width="20" height="20" viewBox="0 0 20 20" fill="none" xmlns="http://www.w3.org/2000/svg">
<g clip-path="url(#clip0_206_105)">
<path d="M10.8334 1.66669C12.8225 1.66669 14.7301 2.45686 16.1367 3.86339C17.5432 5.26991 18.3334 7.17756 18.3334 9.16669M10.8334 5.00002C11.9384 5.00002 12.9982 5.43901 13.7796 6.22041C14.561 7.00181 15 8.06162 15 9.16669M11.5267 13.8067C11.6988 13.8857 11.8927 13.9038 12.0764 13.8579C12.2602 13.812 12.4228 13.7049 12.5375 13.5542L12.8334 13.1667C12.9886 12.9597 13.1899 12.7917 13.4213 12.676C13.6528 12.5603 13.9079 12.5 14.1667 12.5H16.6667C17.1087 12.5 17.5326 12.6756 17.8452 12.9882C18.1578 13.3007 18.3334 13.7247 18.3334 14.1667V16.6667C18.3334 17.1087 18.1578 17.5326 17.8452 17.8452C17.5326 18.1578 17.1087 18.3334 16.6667 18.3334C12.6884 18.3334 8.87313 16.753 6.06009 13.94C3.24704 11.1269 1.66669 7.3116 1.66669 3.33335C1.66669 2.89133 1.84228 2.4674 2.15484 2.15484C2.4674 1.84228 2.89133 1.66669 3.33335 1.66669H5.83335C6.27538 1.66669 6.6993 1.84228 7.01186 2.15484C7.32443 2.4674 7.50002 2.89133 7.50002 3.33335V5.83335C7.50002 6.0921 7.43978 6.34728 7.32407 6.57871C7.20835 6.81014 7.04035 7.01144 6.83335 7.16669L6.44335 7.45919C6.29037 7.576 6.18254 7.74217 6.13818 7.92948C6.09382 8.11678 6.11567 8.31367 6.20002 8.48669C7.33892 10.7999 9.21204 12.6707 11.5267 13.8067Z" stroke="black" stroke-width="1.5" stroke-linecap="round" stroke-linejoin="round"/>
</g>
<defs>
<clipPath id="clip0_206_105">
<rect width="20" height="20" fill="white"/>
</clipPath>
</defs>
</svg>
