<svg width="21"
     height="18"
     viewBox="0 0 21 18"
     fill="currentColor"
     xmlns="http://www.w3.org/2000/svg">
    <path fill-rule="evenodd"
          clip-rule="evenodd"
          d="M18.0169 0.117465C18.264 0.013456 18.5345 -0.022416 18.8002 0.0135823C19.0659 0.0495806 19.317 0.156133 19.5276 0.32215C19.7381 0.488167 19.9003 0.707579 19.9973 0.957548C20.0942 1.20752 20.1224 1.47891 20.0789 1.74347L17.8109 15.5005C17.5909 16.8275 16.1349 17.5885 14.9179 16.9275C13.8999 16.3745 12.3879 15.5225 11.0279 14.6335C10.3479 14.1885 8.26489 12.7635 8.52089 11.7495C8.74089 10.8825 12.2409 7.62446 14.2409 5.68747C15.0259 4.92647 14.6679 4.48747 13.7409 5.18747C11.4389 6.92547 7.74289 9.56847 6.52089 10.3125C5.44289 10.9685 4.88089 11.0805 4.20889 10.9685C2.98289 10.7645 1.84589 10.4485 0.917888 10.0635C-0.336112 9.54347 -0.275112 7.81947 0.916888 7.31747L18.0169 0.117465Z" />
</svg>