<svg width="21"
     height="13"
     viewBox="0 0 21 13"
     fill="currentColor"
     xmlns="http://www.w3.org/2000/svg">
    <path
          d="M20.004 12.3805H17.722C16.859 12.3805 16.599 11.6815 15.052 10.1335C13.7 8.83046 13.129 8.66846 12.787 8.66846C12.314 8.66846 12.185 8.79846 12.185 9.44946V11.5015C12.185 12.0565 12.005 12.3815 10.555 12.3815C9.14829 12.287 7.78416 11.8596 6.57497 11.1346C5.36578 10.4096 4.34612 9.40773 3.6 8.21146C1.82901 6.00609 0.596408 3.4183 0 0.653458C0 0.311458 0.13 0.00145828 0.782 0.00145828H3.062C3.648 0.00145828 3.859 0.262459 4.089 0.865459C5.196 4.12346 7.085 6.95746 7.852 6.95746C8.146 6.95746 8.274 6.82746 8.274 6.09446V2.73846C8.177 1.20746 7.364 1.07846 7.364 0.524459C7.37428 0.378299 7.44114 0.241907 7.55037 0.144251C7.65961 0.0465961 7.80261 -0.00462852 7.949 0.00145828H11.533C12.023 0.00145828 12.185 0.245458 12.185 0.831458V5.36146C12.185 5.85046 12.395 6.01246 12.543 6.01246C12.837 6.01246 13.063 5.85046 13.602 5.31246C14.7569 3.90312 15.7008 2.33337 16.404 0.652458C16.4756 0.450422 16.6116 0.27745 16.7909 0.160047C16.9703 0.0426443 17.1832 -0.0127129 17.397 0.00245821H19.678C20.362 0.00245821 20.507 0.344459 20.362 0.832459C19.5321 2.69076 18.5056 4.45482 17.3 6.09446C17.054 6.46946 16.956 6.66446 17.3 7.10446C17.526 7.44646 18.326 8.11446 18.863 8.74946C19.645 9.52946 20.294 10.4315 20.785 11.4195C20.981 12.0555 20.655 12.3805 20.004 12.3805Z" />
</svg>