<svg width="32" height="32" viewBox="0 0 32 32" fill="none" xmlns="http://www.w3.org/2000/svg">
<path fill-rule="evenodd" clip-rule="evenodd" d="M26.3672 5.90662C26.6967 5.76794 27.0574 5.72011 27.4116 5.76811C27.7659 5.81611 28.1008 5.95818 28.3815 6.17953C28.6622 6.40089 28.8785 6.69344 29.0077 7.02673C29.137 7.36002 29.1746 7.72187 29.1166 8.07462L26.0926 26.4173C25.7992 28.1866 23.8579 29.2013 22.2352 28.32C20.8779 27.5826 18.8619 26.4466 17.0486 25.2613C16.1419 24.668 13.3646 22.768 13.7059 21.416C13.9992 20.26 18.6659 15.916 21.3326 13.3333C22.3792 12.3186 21.9019 11.7333 20.6659 12.6666C17.5966 14.984 12.6686 18.508 11.0392 19.5C9.60191 20.3746 8.85258 20.524 7.95658 20.3746C6.32191 20.1026 4.80591 19.6813 3.56858 19.168C1.89658 18.4746 1.97791 16.176 3.56724 15.5066L26.3672 5.90662Z" fill="#0088CC"/>
</svg>
