<svg width="36" height="33" viewBox="0 0 36 33" fill="none" xmlns="http://www.w3.org/2000/svg">
<g filter="url(#filter0_d_1333_880)">
<path d="M30.672 24.5073H27.6293C26.4787 24.5073 26.132 23.5753 24.0693 21.5113C22.2667 19.7739 21.5053 19.5579 21.0493 19.5579C20.4187 19.5579 20.2467 19.7313 20.2467 20.5993V23.3353C20.2467 24.0753 20.0067 24.5086 18.0733 24.5086C16.1977 24.3826 14.3789 23.8128 12.7666 22.8462C11.1544 21.8795 9.79483 20.5436 8.8 18.9486C6.43868 16.0081 4.79521 12.5577 4 8.87128C4 8.41528 4.17333 8.00194 5.04267 8.00194H8.08267C8.864 8.00194 9.14533 8.34994 9.452 9.15394C10.928 13.4979 13.4467 17.2766 14.4693 17.2766C14.8613 17.2766 15.032 17.1033 15.032 16.1259V11.6513C14.9027 9.60994 13.8187 9.43794 13.8187 8.69928C13.8324 8.5044 13.9215 8.32254 14.0672 8.19234C14.2128 8.06213 14.4035 7.99383 14.5987 8.00194H19.3773C20.0307 8.00194 20.2467 8.32728 20.2467 9.10861V15.1486C20.2467 15.8006 20.5267 16.0166 20.724 16.0166C21.116 16.0166 21.4173 15.8006 22.136 15.0833C23.6759 13.2042 24.9343 11.1112 25.872 8.86994C25.9675 8.60056 26.1487 8.36993 26.3879 8.2134C26.627 8.05686 26.9109 7.98305 27.196 8.00328H30.2373C31.1493 8.00328 31.3427 8.45928 31.1493 9.10994C30.0429 11.5877 28.6742 13.9398 27.0667 16.1259C26.7387 16.6259 26.608 16.8859 27.0667 17.4726C27.368 17.9286 28.4347 18.8193 29.1507 19.6659C30.1933 20.7059 31.0587 21.9086 31.7133 23.2259C31.9747 24.0739 31.54 24.5073 30.672 24.5073Z" fill="#0076FF"/>
</g>
<defs>
<filter id="filter0_d_1333_880" x="-2" y="0" width="40" height="40" filterUnits="userSpaceOnUse" color-interpolation-filters="sRGB">
<feFlood flood-opacity="0" result="BackgroundImageFix"/>
<feColorMatrix in="SourceAlpha" type="matrix" values="0 0 0 0 0 0 0 0 0 0 0 0 0 0 0 0 0 0 127 0" result="hardAlpha"/>
<feOffset dy="4"/>
<feGaussianBlur stdDeviation="2"/>
<feComposite in2="hardAlpha" operator="out"/>
<feColorMatrix type="matrix" values="0 0 0 0 0 0 0 0 0 0 0 0 0 0 0 0 0 0 0.25 0"/>
<feBlend mode="normal" in2="BackgroundImageFix" result="effect1_dropShadow_1333_880"/>
<feBlend mode="normal" in="SourceGraphic" in2="effect1_dropShadow_1333_880" result="shape"/>
</filter>
</defs>
</svg>
