<svg width="32" height="32" viewBox="0 0 32 32" fill="none" xmlns="http://www.w3.org/2000/svg">
<path d="M28.672 24.5073H25.6293C24.4787 24.5073 24.132 23.5753 22.0693 21.5113C20.2667 19.7739 19.5053 19.5579 19.0493 19.5579C18.4187 19.5579 18.2467 19.7313 18.2467 20.5993V23.3353C18.2467 24.0753 18.0067 24.5086 16.0733 24.5086C14.1977 24.3826 12.3789 23.8128 10.7666 22.8462C9.15437 21.8795 7.79483 20.5436 6.8 18.9486C4.43868 16.0081 2.79521 12.5577 2 8.87128C2 8.41528 2.17333 8.00194 3.04267 8.00194H6.08267C6.864 8.00194 7.14533 8.34994 7.452 9.15394C8.928 13.4979 11.4467 17.2766 12.4693 17.2766C12.8613 17.2766 13.032 17.1033 13.032 16.1259V11.6513C12.9027 9.60994 11.8187 9.43794 11.8187 8.69928C11.8324 8.5044 11.9215 8.32254 12.0672 8.19234C12.2128 8.06213 12.4035 7.99383 12.5987 8.00194H17.3773C18.0307 8.00194 18.2467 8.32728 18.2467 9.10861V15.1486C18.2467 15.8006 18.5267 16.0166 18.724 16.0166C19.116 16.0166 19.4173 15.8006 20.136 15.0833C21.6759 13.2042 22.9343 11.1112 23.872 8.86994C23.9675 8.60056 24.1487 8.36993 24.3879 8.2134C24.627 8.05686 24.9109 7.98305 25.196 8.00328H28.2373C29.1493 8.00328 29.3427 8.45928 29.1493 9.10994C28.0429 11.5877 26.6742 13.9398 25.0667 16.1259C24.7387 16.6259 24.608 16.8859 25.0667 17.4726C25.368 17.9286 26.4347 18.8193 27.1507 19.6659C28.1933 20.7059 29.0587 21.9086 29.7133 23.2259C29.9747 24.0739 29.54 24.5073 28.672 24.5073Z" fill="#0076FF"/>
</svg>
